<?xml version="1.0" standalone="no"?>
<!DOCTYPE svg PUBLIC "-//W3C//DTD SVG 20010904//EN"
 "http://www.w3.org/TR/2001/REC-SVG-20010904/DTD/svg10.dtd">
<svg version="1.0" xmlns="http://www.w3.org/2000/svg"
 width="1257.000000pt" height="1280.000000pt" viewBox="0 0 1257.000000 1280.000000"
 preserveAspectRatio="xMidYMid meet">
<g transform="translate(0.000000,1280.000000) scale(0.100000,-0.100000)"
fill="#000000" stroke="none">
<path d="M7480 12776 c-107 -54 -130 -188 -49 -281 17 -19 43 -36 59 -40 16
-3 33 -12 39 -19 8 -9 10 -635 9 -2127 l-3 -2114 -45 -5 -45 -5 -5 -160 -5
-160 -200 0 -200 0 -3 157 c-3 176 3 164 -82 170 l-35 3 -3 1124 -2 1124 27
46 c82 139 -24 304 -174 271 -77 -18 -125 -79 -127 -164 -1 -96 56 -163 149
-176 l40 -5 0 -1110 0 -1110 -65 -3 c-119 -4 -109 11 -112 -170 l-3 -157 -197
-3 -198 -2 0 153 c0 106 -4 157 -12 165 -7 7 -43 12 -90 12 l-78 0 -2 718 -3
717 -537 3 -537 2 -6 33 c-3 17 -5 363 -3 767 l3 735 25 33 c21 29 25 44 25
105 0 59 -4 78 -23 105 -32 44 -76 65 -138 65 -69 0 -113 -26 -141 -83 -52
-101 -11 -220 86 -251 20 -7 39 -17 43 -23 4 -6 8 -361 8 -788 l0 -778 553 -2
552 -3 3 -677 2 -677 -52 -3 -53 -3 -5 -160 -5 -160 -200 0 -200 0 -5 160 -5
160 -47 3 -48 3 -2 412 -3 412 -625 3 -624 2 -31 29 c-44 42 -70 52 -131 52
-107 0 -167 -67 -161 -178 3 -66 20 -99 69 -136 33 -24 105 -33 151 -18 45 15
94 70 103 115 3 20 12 40 19 46 8 7 191 9 561 8 l549 -3 0 -370 0 -370 -70 -5
-70 -5 -2 -140 c-2 -77 -5 -150 -8 -163 l-5 -22 -198 2 -197 3 -3 157 -3 158
-32 8 -32 8 -3 177 -2 177 -1087 0 -1086 0 -54 26 c-85 42 -162 25 -217 -49
-24 -32 -33 -121 -17 -170 26 -77 115 -120 200 -97 58 15 90 47 111 110 l19
55 1002 3 c796 2 1004 0 1011 -10 9 -15 11 -189 2 -212 -5 -13 -23 -16 -88
-16 -44 0 -87 -4 -93 -8 -9 -6 -13 -54 -15 -162 l-3 -155 -237 -3 -238 -2 0
-333 c0 -246 -3 -336 -12 -345 -8 -8 -59 -12 -165 -12 l-153 0 0 -30 c0 -19
-7 -33 -19 -40 -13 -7 -356 -10 -1041 -10 l-1021 0 -47 49 c-52 54 -92 68
-164 58 -109 -15 -169 -144 -116 -247 32 -63 77 -90 147 -90 64 0 110 23 137
67 10 15 24 34 33 41 21 17 2061 18 2079 0 7 -7 12 -43 12 -90 l0 -78 153 0
c106 0 157 -4 165 -12 13 -13 18 -351 6 -382 -5 -14 -29 -16 -165 -16 l-158 0
-3 -67 -3 -68 -1615 0 -1615 0 -3 929 -2 929 39 42 c81 88 64 231 -32 282 -45
23 -124 22 -167 -3 -40 -23 -88 -103 -89 -149 -1 -42 47 -125 89 -153 l35 -23
5 -987 5 -987 1675 -5 1675 -5 5 -55 5 -55 155 -3 c108 -2 156 -6 162 -15 13
-21 10 -371 -4 -385 -8 -8 -59 -12 -165 -12 l-153 0 0 -40 c0 -29 -5 -42 -19
-50 -13 -7 -357 -10 -1043 -10 l-1024 0 -25 -32 -24 -33 -5 -745 -5 -744 -38
-9 c-84 -20 -142 -125 -118 -214 22 -81 77 -123 161 -123 89 0 153 53 166 136
7 49 -8 118 -32 144 -11 13 -14 150 -16 778 l-3 762 1010 -2 1010 -3 3 -92 3
-93 152 0 c106 0 157 -4 165 -12 9 -9 12 -86 12 -285 l0 -273 289 0 c227 0
291 -3 299 -13 7 -8 13 -73 14 -163 l3 -149 32 -3 c24 -2 34 -9 38 -25 3 -12
4 -367 3 -789 l-3 -766 -24 -26 -24 -26 -658 0 -657 0 -20 32 c-55 88 -189
100 -259 24 -83 -90 -55 -237 53 -282 80 -33 174 1 211 76 12 25 27 51 33 57
8 10 157 13 679 13 l669 0 56 46 56 46 2 807 3 806 85 5 85 5 3 151 c2 113 6
155 16 163 9 8 74 11 202 9 l189 -3 3 -157 c2 -145 4 -158 22 -168 20 -11 20
-29 20 -1824 l0 -1814 -31 -26 -31 -26 -522 0 -522 0 -32 46 c-53 74 -145 96
-222 53 -104 -59 -109 -229 -9 -297 29 -20 44 -23 101 -20 58 3 72 8 99 33 17
17 38 45 45 62 l14 33 543 0 543 0 64 47 c36 25 68 51 72 57 4 6 8 835 8 1843
l0 1832 108 3 107 3 5 160 5 160 189 3 c128 2 193 -1 202 -9 10 -8 14 -50 16
-163 l3 -151 43 -3 42 -3 0 -1528 0 -1528 -39 -11 c-84 -26 -135 -123 -111
-211 33 -125 176 -170 271 -84 67 61 74 163 18 245 -18 25 -19 78 -17 1570 l3
1543 75 5 75 5 3 155 c2 108 6 156 15 162 6 4 94 8 193 8 138 0 184 -3 192
-13 7 -8 13 -73 14 -163 l3 -149 75 -5 75 -5 3 -1995 2 -1995 -21 -17 c-20
-17 -67 -18 -675 -18 l-654 0 -40 26 c-75 50 -181 32 -233 -38 -21 -29 -34
-118 -23 -162 14 -56 103 -126 159 -126 32 0 97 33 125 63 13 14 29 44 36 68
l13 44 656 5 656 5 61 53 60 53 0 2019 0 2019 43 3 42 3 3 151 c2 113 6 155
16 163 9 8 74 11 202 9 l189 -3 5 -160 5 -160 185 0 185 0 5 160 5 160 189 3
c128 2 193 -1 202 -9 10 -8 14 -50 16 -163 l3 -151 180 0 180 0 3 151 c2 113
6 155 16 163 9 8 74 11 202 9 l189 -3 5 -160 5 -160 182 -3 183 -2 5 22 c3 13
6 86 8 163 l2 140 387 3 388 2 2 488 3 487 158 3 157 3 0 40 c0 22 5 49 10 60
10 18 28 19 665 19 517 0 655 -3 655 -12 0 -7 0 -357 0 -778 l0 -765 -44 -38
c-52 -44 -70 -89 -64 -159 6 -55 28 -92 79 -126 29 -20 44 -23 94 -20 109 7
160 68 153 182 -4 73 -26 108 -84 141 l-39 22 -5 834 -5 834 -702 3 -702 2 -5
33 c-3 17 -7 48 -8 67 l-3 35 -155 5 -155 5 -3 189 c-2 130 1 193 9 202 9 11
46 14 159 14 l148 0 3 79 c2 44 8 83 12 88 5 4 369 8 810 8 614 0 801 -3 804
-12 9 -25 49 -77 76 -97 42 -31 140 -29 185 3 36 25 82 107 82 145 0 13 -12
47 -26 75 -59 112 -185 131 -277 40 l-40 -39 -803 0 c-784 0 -804 0 -814 19
-5 11 -10 29 -10 40 0 20 -7 21 -157 23 l-158 3 -3 527 -2 528 -448 2 -447 3
-3 155 c-2 123 -5 157 -17 166 -13 10 -15 125 -13 920 l3 909 904 0 905 0 23
-45 c34 -65 65 -84 143 -88 55 -3 70 0 99 20 50 33 74 80 74 143 0 69 -28 123
-79 152 -68 39 -152 28 -209 -28 l-31 -29 -959 -2 -960 -3 -3 -972 -2 -972
-123 -3 -122 -3 -2 -140 c-4 -208 22 -185 -213 -185 l-200 0 0 154 c0 169 -1
172 -60 178 l-35 3 0 1585 0 1585 725 5 725 5 3 446 2 447 36 27 c42 32 73 94
74 145 0 45 -37 118 -72 144 -39 28 -132 33 -178 9 -121 -63 -115 -249 11
-313 l39 -20 0 -400 0 -400 -739 0 c-665 0 -739 -2 -745 -16 -3 -9 -6 -744 -6
-1635 l0 -1619 -67 0 c-38 0 -74 -4 -80 -8 -9 -6 -13 -54 -15 -162 l-3 -155
-200 0 -200 0 -5 160 -5 160 -72 3 -73 3 0 2138 0 2139 30 57 c33 62 36 100
16 158 -18 50 -38 71 -92 96 -55 26 -78 26 -134 -3z"/>
<path d="M7678 4288 c-2 -2 -5 -621 -8 -1377 l-5 -1375 -34 -8 c-81 -22 -124
-80 -124 -168 0 -105 61 -170 160 -170 30 0 67 7 82 15 99 51 119 189 41 279
l-30 34 -2 1383 -3 1384 -37 3 c-21 2 -39 2 -40 0z"/>
<path d="M8525 4278 c-3 -7 -4 -688 -3 -1513 l3 -1500 866 -3 866 -2 18 -41
c28 -60 76 -89 149 -89 110 0 172 69 164 182 -11 150 -170 211 -283 107 l-42
-39 -809 2 -809 3 -5 1450 -5 1450 -53 3 c-36 2 -54 -1 -57 -10z"/>
<path d="M9265 4278 c-3 -7 -4 -490 -3 -1073 l3 -1060 929 -5 929 -5 26 -48
c34 -63 77 -90 144 -90 88 0 142 40 162 120 28 112 -35 210 -142 220 -65 7
-115 -15 -150 -66 l-28 -40 -892 -1 -893 0 -2 1028 -3 1027 -38 3 c-24 2 -39
-1 -42 -10z"/>
</g>
</svg>
